# xmcd
#
# Track frame offsets: 
#        150
#        12780
#        23790
#        35627
#        46220
#        57122
#        69302
#        79817
#        91675
#        102192
#        111707
#        124305
#        137895
#        147142
#        159637
#        171557
#        181672
#        193290
#        203487
#        214175
#        226540
#
# Disc length: 3157 seconds
#
# Revision: 1
# Processed by: cddbd v1.5.2PL0 Copyright (c) Steve Scherf et al.
# Submitted via: ExactAudioCopy v1.1
#
DISCID=210c5315
DTITLE=Country All Stars - Jazz From The Hills
DYEAR=1993
DGENRE=Country
TTITLE0=Stomping At The Savoy
TTITLE1=Tennessee Rag
TTITLE2=Do Something
TTITLE3=My Little Girl
TTITLE4=It Goes Like this (That Funny Melody)
TTITLE5=Midnight Train
TTITLE6=What's The Reason (I'm Not Pleasin' You)
TTITLE7=Marie
TTITLE8=Fiddle Patch
TTITLE9=Fiddle Sticks
TTITLE10=In A Little Spanish Town
TTITLE11=Sweet Georgia Brown
TTITLE12=The Lady In Red
TTITLE13=When It's Darkness On The Delta
TTITLE14=Indiana March (master)
TTITLE15=The Vacation Train
TTITLE16=Indiana March (take 1)
TTITLE17=Song Of The Wanderer (Where Shall I Go)
TTITLE18=Royal Garden Blues (master)
TTITLE19=I'll See You In My Dreams
TTITLE20=Royal Garden Blues (take 1)
EXTD=
EXTT0=
EXTT1=
EXTT2=
EXTT3=
EXTT4=
EXTT5=
EXTT6=
EXTT7=
EXTT8=
EXTT9=
EXTT10=
EXTT11=
EXTT12=
EXTT13=
EXTT14=
EXTT15=
EXTT16=
EXTT17=
EXTT18=
EXTT19=
EXTT20=
PLAYORDER=
